<svg id="Layer_1" data-name="Layer 1" xmlns="http://www.w3.org/2000/svg" viewBox="0 0 148.4 116"><defs><style>.cls-1{fill:#fff;}.cls-2{fill:#2a292b;}.cls-3{fill:#1d1d1b;}</style></defs><g id="Layer_2" data-name="Layer 2"><g id="Layer_2-2" data-name="Layer 2-2"><circle class="cls-1" cx="90.5" cy="58.1" r="55.8"/><path class="cls-1" d="M91.5,116a57.9,57.9,0,1,1,57.9-57.9h0A58,58,0,0,1,91.5,116Zm0-111.6a53.7,53.7,0,1,0,53.7,53.7A53.71,53.71,0,0,0,91.5,4.4Z" transform="translate(-1)"/><path class="cls-2" d="M110.6,86.3,91.5,72.4,72.4,86.3l7.3-22.5L60.6,50H84.2l7.3-22.5L98.8,50h23.6L103.3,63.9Z" transform="translate(-1)"/><polygon class="cls-1" points="90.3 58 3.3 5.8 3.3 110.2 90.3 58"/><path class="cls-3" d="M4.3,5.8,91.3,58l-87,52.2V5.8M1,0V116l5-3L93,60.8,97.7,58,93,55.2,6,3,1,0Z" transform="translate(-1)"/></g></g></svg>