<?xml version="1.0" encoding="utf-8"?>
<!-- Generator: Adobe Illustrator 25.0.1, SVG Export Plug-In . SVG Version: 6.00 Build 0)  -->
<svg version="1.1" id="Layer_1" xmlns="http://www.w3.org/2000/svg" xmlns:xlink="http://www.w3.org/1999/xlink" x="0px" y="0px"
	 viewBox="0 0 796.1 112.3" style="enable-background:new 0 0 796.1 112.3;" xml:space="preserve">
<style type="text/css">
	.st0{enable-background:new    ;}
	.st1{fill:#FFFFFF;}
	.st2{fill:#1D1D1B;}
	.st3{fill:#2A292B;}
</style>
<g id="Layer_2_1_">
	<g id="Layer_2-2">
		<g class="st0">
			<path class="st1" d="M170.7,84.9c-2.5-2.8-3.8-6.8-3.8-12v-3.7h9.6v4.4c0,4.2,1.8,6.3,5.3,6.3c1.7,0,3-0.5,3.9-1.5
				c0.9-1,1.3-2.7,1.3-4.9c0-2.7-0.6-5.1-1.8-7.1c-1.2-2.1-3.5-4.5-6.8-7.4c-4.2-3.7-7.1-7-8.8-10c-1.7-3-2.5-6.3-2.5-10.1
				c0-5.1,1.3-9.1,3.9-11.9c2.6-2.8,6.3-4.2,11.3-4.2c4.9,0,8.5,1.4,11,4.2c2.5,2.8,3.7,6.8,3.7,12v2.7h-9.6v-3.3
				c0-2.2-0.4-3.8-1.3-4.8c-0.9-1-2.1-1.5-3.8-1.5c-3.4,0-5.1,2.1-5.1,6.2c0,2.3,0.6,4.5,1.9,6.5c1.3,2,3.6,4.5,6.9,7.4
				c4.2,3.7,7.2,7,8.8,10.1c1.6,3,2.4,6.5,2.4,10.6c0,5.3-1.3,9.3-3.9,12.2c-2.6,2.8-6.4,4.2-11.4,4.2
				C177,89.1,173.2,87.7,170.7,84.9z"/>
			<path class="st1" d="M203,23.6h27.7v9.2h-17.5v17.1h13.9v9.2h-13.9V79h17.5v9.2H203V23.6z"/>
			<path class="st1" d="M239.7,85c-2.6-2.8-3.8-6.7-3.8-11.7V38.6c0-5,1.3-8.9,3.8-11.7c2.6-2.8,6.3-4.2,11.1-4.2
				c4.9,0,8.6,1.4,11.1,4.2c2.6,2.8,3.8,6.7,3.8,11.7v6.8h-9.6v-7.5c0-4-1.7-6-5.1-6c-3.4,0-5.1,2-5.1,6V74c0,3.9,1.7,5.9,5.1,5.9
				c3.4,0,5.1-2,5.1-5.9v-9.9h9.6v9.1c0,5-1.3,8.9-3.8,11.7c-2.6,2.8-6.3,4.2-11.1,4.2C245.9,89.1,242.2,87.7,239.7,85z"/>
			<path class="st1" d="M271.8,23.6h15c5.2,0,9,1.2,11.4,3.6c2.4,2.4,3.6,6.2,3.6,11.2v4c0,6.7-2.2,10.9-6.6,12.7v0.2
				c2.5,0.7,4.2,2.2,5.2,4.5s1.5,5.3,1.5,9.1v11.3c0,1.8,0.1,3.3,0.2,4.5c0.1,1.1,0.4,2.3,0.9,3.4h-10.3c-0.4-1-0.6-2-0.7-3
				c-0.1-0.9-0.2-2.6-0.2-5V68.5c0-3-0.5-5-1.4-6.2c-1-1.2-2.6-1.8-4.9-1.8H282v27.7h-10.1V23.6z M285.7,51.3c2,0,3.6-0.5,4.6-1.6
				s1.5-2.8,1.5-5.3v-5c0-2.3-0.4-4-1.2-5.1c-0.8-1-2.1-1.6-3.9-1.6H282v18.4H285.7z"/>
			<path class="st1" d="M309,23.6h27.7v9.2h-17.5v17.1h13.9v9.2h-13.9V79h17.5v9.2H309V23.6z"/>
			<path class="st1" d="M350.4,32.9h-10.6v-9.2h31.4v9.2h-10.6v55.3h-10.1V32.9z"/>
		</g>
		<g class="st0">
			<path class="st1" d="M393.9,23.6h26.8v9.2H404v18h13.1v9.2H404v28.1h-10.1V23.6z"/>
			<path class="st1" d="M425.6,23.6h10.1v64.6h-10.1V23.6z"/>
			<path class="st1" d="M443.3,23.6h10.1V79h16.7v9.2h-26.8V23.6z"/>
			<path class="st1" d="M475.1,23.6h14.5l6.5,46.2h0.2l6.5-46.2h14.5v64.6h-9.6V39.3h-0.2L500,88.2h-8.5l-7.4-48.9h-0.2v48.9h-8.9
				V23.6z"/>
		</g>
		<g class="st0">
			<path class="st1" d="M544.3,84.9c-2.5-2.8-3.8-6.8-3.8-12v-3.7h9.6v4.4c0,4.2,1.8,6.3,5.3,6.3c1.7,0,3-0.5,3.9-1.5
				c0.9-1,1.3-2.7,1.3-4.9c0-2.7-0.6-5.1-1.8-7.1c-1.2-2.1-3.5-4.5-6.8-7.4c-4.2-3.7-7.1-7-8.8-10c-1.7-3-2.5-6.3-2.5-10.1
				c0-5.1,1.3-9.1,3.9-11.9c2.6-2.8,6.3-4.2,11.3-4.2c4.9,0,8.5,1.4,11,4.2c2.5,2.8,3.7,6.8,3.7,12v2.7h-9.6v-3.3
				c0-2.2-0.4-3.8-1.3-4.8c-0.9-1-2.1-1.5-3.8-1.5c-3.4,0-5.1,2.1-5.1,6.2c0,2.3,0.6,4.5,1.9,6.5c1.3,2,3.6,4.5,6.9,7.4
				c4.2,3.7,7.2,7,8.8,10.1c1.6,3,2.4,6.5,2.4,10.6c0,5.3-1.3,9.3-3.9,12.2c-2.6,2.8-6.4,4.2-11.4,4.2
				C550.5,89.1,546.8,87.7,544.3,84.9z"/>
			<path class="st1" d="M579.7,85c-2.6-2.8-3.8-6.7-3.8-11.7V38.6c0-5,1.3-8.9,3.8-11.7c2.6-2.8,6.3-4.2,11.1-4.2
				c4.9,0,8.6,1.4,11.1,4.2c2.6,2.8,3.8,6.7,3.8,11.7v6.8h-9.6v-7.5c0-4-1.7-6-5.1-6c-3.4,0-5.1,2-5.1,6V74c0,3.9,1.7,5.9,5.1,5.9
				c3.4,0,5.1-2,5.1-5.9v-9.9h9.6v9.1c0,5-1.3,8.9-3.8,11.7c-2.6,2.8-6.3,4.2-11.1,4.2C586,89.1,582.3,87.7,579.7,85z"/>
			<path class="st1" d="M611.9,23.6H622v26.3h10.9V23.6h10.1v64.6h-10.1V59.1H622v29.1h-10.1V23.6z"/>
			<path class="st1" d="M653.8,84.9c-2.6-2.8-4-6.8-4-12V38.9c0-5.2,1.3-9.2,4-12c2.6-2.8,6.5-4.2,11.4-4.2c5,0,8.8,1.4,11.4,4.2
				c2.6,2.8,4,6.8,4,12v33.9c0,5.2-1.3,9.2-4,12c-2.6,2.8-6.5,4.2-11.4,4.2C660.3,89.1,656.5,87.7,653.8,84.9z M670.5,73.5V38.3
				c0-4.2-1.8-6.4-5.3-6.4c-3.5,0-5.3,2.1-5.3,6.4v35.2c0,4.2,1.8,6.4,5.3,6.4C668.8,79.9,670.5,77.8,670.5,73.5z"/>
			<path class="st1" d="M690.7,84.9c-2.6-2.8-4-6.8-4-12V38.9c0-5.2,1.3-9.2,4-12c2.6-2.8,6.5-4.2,11.4-4.2c5,0,8.8,1.4,11.4,4.2
				c2.6,2.8,4,6.8,4,12v33.9c0,5.2-1.3,9.2-4,12c-2.6,2.8-6.5,4.2-11.4,4.2C697.2,89.1,693.4,87.7,690.7,84.9z M707.4,73.5V38.3
				c0-4.2-1.8-6.4-5.3-6.4s-5.3,2.1-5.3,6.4v35.2c0,4.2,1.8,6.4,5.3,6.4S707.4,77.8,707.4,73.5z"/>
			<path class="st1" d="M724.4,23.6h10.1V79h16.7v9.2h-26.8V23.6z"/>
		</g>
		<g class="st0">
			<path class="st1" d="M779.4,87.1c-1.6-1-2.9-2.3-3.8-3.9c-0.9-1.7-1.4-3.5-1.4-5.6s0.5-4,1.4-5.6c0.9-1.7,2.2-3,3.8-3.9
				c1.6-1,3.4-1.4,5.5-1.4c2,0,3.8,0.5,5.5,1.4c1.6,1,2.9,2.3,3.8,3.9c0.9,1.7,1.4,3.5,1.4,5.6s-0.5,4-1.4,5.6
				c-0.9,1.7-2.2,3-3.8,3.9c-1.6,1-3.4,1.4-5.5,1.4C782.8,88.5,781,88,779.4,87.1z M789.2,85.2c1.3-0.8,2.3-1.8,3-3.2
				s1.1-2.9,1.1-4.6s-0.4-3.2-1.1-4.6s-1.7-2.4-3-3.2c-1.3-0.8-2.7-1.1-4.3-1.1c-1.6,0-3.1,0.4-4.3,1.1c-1.3,0.8-2.3,1.8-3,3.2
				s-1.1,2.9-1.1,4.6s0.4,3.2,1.1,4.6s1.7,2.4,3,3.2c1.3,0.8,2.7,1.1,4.3,1.1C786.5,86.4,787.9,86,789.2,85.2z M781.5,71h3.5
				c1.2,0,2.1,0.3,2.6,0.8c0.6,0.6,0.8,1.4,0.8,2.6v0.3c0,1.4-0.5,2.4-1.6,2.8v0.1c0.6,0.2,1,0.6,1.2,1.1s0.4,1.2,0.4,2v1.6
				c0,0.8,0.1,1.4,0.3,1.8h-2.4c-0.1-0.2-0.1-0.4-0.2-0.7s0-0.6,0-1.2v-1.6c0-0.7-0.1-1.2-0.4-1.5c-0.2-0.3-0.6-0.4-1.2-0.4h-0.8V84
				h-2.3V71z M784.8,76.6c0.4,0,0.8-0.1,1-0.4c0.2-0.2,0.4-0.6,0.4-1.2v-0.4c0-0.5-0.1-0.9-0.3-1.2c-0.2-0.3-0.5-0.4-1-0.4h-1.1v3.5
				H784.8z"/>
		</g>
		<circle class="st1" cx="87.6" cy="56.3" r="54"/>
		<path class="st2" d="M87.6,112.3c-31,0-56.1-25.1-56.1-56.1S56.6,0.2,87.6,0.2s56.1,25.1,56.1,56.1
			C143.7,87.2,118.6,112.3,87.6,112.3z M87.6,4.3c-28.7,0-52,23.3-52,52s23.3,52,52,52s52-23.3,52-52C139.6,27.6,116.4,4.3,87.6,4.3
			C87.6,4.3,87.6,4.3,87.6,4.3L87.6,4.3z"/>
		<path class="st3" d="M106.1,83.6L87.6,70.2L69.1,83.6l7.1-21.7L57.7,48.4h22.9l7.1-21.7l7.1,21.7h22.9L99,61.8L106.1,83.6z"/>
		<polygon class="st1" points="87.4,56.2 3.2,5.6 3.2,106.7 		"/>
		<path class="st2" d="M3.2,5.6l84.3,50.5L3.2,106.7V5.6 M0,0v112.3l4.8-2.9l84.2-50.5l4.6-2.7l-4.6-2.7L4.8,2.9L0,0z"/>
	</g>
</g>
</svg>
